<?xml version="1.0" encoding="UTF-8"?>
<svg version="1.1" xmlns="http://www.w3.org/2000/svg" width="500" height="500">
<path d="M0 0 C0.84026733 0.00201416 1.68053467 0.00402832 2.54626465 0.00610352 C5.67022194 0.01652845 8.79410111 0.04445096 11.91796875 0.0703125 C22.40578125 0.1321875 22.40578125 0.1321875 33.10546875 0.1953125 C40.03546875 19.6653125 46.96546875 39.1353125 54.10546875 59.1953125 C66.52126193 59.15573251 66.52126193 59.15573251 78.93701172 59.10522461 C80.4905592 59.1023047 82.04410744 59.09975632 83.59765625 59.09765625 C84.4079126 59.09254028 85.21816895 59.08742432 86.05297852 59.08215332 C91.87732515 59.0812407 91.87732515 59.0812407 94.10546875 60.1953125 C94.27548904 59.53806686 94.44550934 58.88082123 94.62068176 58.20365906 C96.48830259 51.15280521 98.70159618 44.28261325 101.1171875 37.40234375 C101.49027542 36.33030197 101.86336334 35.25826019 102.24775696 34.1537323 C103.42604162 30.77054344 104.60941259 27.38916034 105.79296875 24.0078125 C106.59864594 21.69738369 107.40398765 19.38683786 108.20898438 17.07617188 C110.16998629 11.44763188 112.13787448 5.82156854 114.10546875 0.1953125 C128.29546875 0.1953125 142.48546875 0.1953125 157.10546875 0.1953125 C157.10546875 1.8453125 157.10546875 3.4953125 157.10546875 5.1953125 C151.16546875 5.1953125 145.22546875 5.1953125 139.10546875 5.1953125 C139.43546875 23.0153125 139.76546875 40.8353125 140.10546875 59.1953125 C152.5663057 59.15570904 152.5663057 59.15570904 165.02709961 59.10522461 C166.58316988 59.10230545 168.13924091 59.09975689 169.6953125 59.09765625 C170.91837097 59.0899823 170.91837097 59.0899823 172.1661377 59.08215332 C174.14627398 59.0818431 176.12631529 59.13293154 178.10546875 59.1953125 C179.10546875 60.1953125 179.10546875 60.1953125 179.21899414 63.98071289 C179.218743 65.66813978 179.21317987 67.3555718 179.203125 69.04296875 C179.20211792 69.82828979 179.20111084 70.61361084 179.20007324 71.42272949 C179.19482513 74.36777193 179.18086398 77.31279362 179.16796875 80.2578125 C179.14734375 86.8371875 179.12671875 93.4165625 179.10546875 100.1953125 C165.90546875 100.1953125 152.70546875 100.1953125 139.10546875 100.1953125 C139.10546875 116.6953125 139.10546875 133.1953125 139.10546875 150.1953125 C145.04546875 150.1953125 150.98546875 150.1953125 157.10546875 150.1953125 C157.10546875 151.5153125 157.10546875 152.8353125 157.10546875 154.1953125 C137.63546875 154.1953125 118.16546875 154.1953125 98.10546875 154.1953125 C98.10546875 152.8753125 98.10546875 151.5553125 98.10546875 150.1953125 C104.04546875 150.1953125 109.98546875 150.1953125 116.10546875 150.1953125 C116.10546875 133.6953125 116.10546875 117.1953125 116.10546875 100.1953125 C100.76046875 100.6903125 100.76046875 100.6903125 85.10546875 101.1953125 C83.24341797 106.80853516 83.24341797 106.80853516 81.34375 112.53515625 C80.13072933 116.14420968 78.9105763 119.75077621 77.68969727 123.35717773 C76.8433282 125.86996285 76.00442782 128.38527623 75.1730957 130.90307617 C73.97858931 134.51647581 72.75774151 138.1200076 71.53125 141.72265625 C71.1633284 142.85493149 70.7954068 143.98720673 70.41633606 145.15379333 C70.05634018 146.19479691 69.6963443 147.23580048 69.32543945 148.30834961 C69.01677444 149.22990341 68.70810944 150.15145721 68.39009094 151.10093689 C67.10546875 153.1953125 67.10546875 153.1953125 64.46672058 154.00074768 C63.68750748 154.06495407 62.90829437 154.12916046 62.10546875 154.1953125 C59.703125 147.38867188 57.30078125 140.58203125 54.8984375 133.77539062 C54.63758362 133.03654633 54.37672974 132.29770203 54.10797119 131.53646851 C53.57916022 130.03768146 53.05096444 128.53867722 52.52337646 127.03945923 C51.15271554 123.14711146 49.77041378 119.25950803 48.36816406 115.37841797 C48.08945465 114.60227646 47.81074524 113.82613495 47.52359009 113.026474 C46.99113036 111.54458349 46.45498703 110.06400982 45.91464233 108.5849762 C44.86348638 105.64942548 44.10546875 103.33938825 44.10546875 100.1953125 C33.54546875 100.1953125 22.98546875 100.1953125 12.10546875 100.1953125 C12.10546875 116.6953125 12.10546875 133.1953125 12.10546875 150.1953125 C18.37546875 150.1953125 24.64546875 150.1953125 31.10546875 150.1953125 C31.10546875 151.5153125 31.10546875 152.8353125 31.10546875 154.1953125 C30.44546875 154.1953125 29.78546875 154.1953125 29.10546875 154.1953125 C29.10546875 155.1853125 29.10546875 156.1753125 29.10546875 157.1953125 C9.30546875 157.1953125 -10.49453125 157.1953125 -30.89453125 157.1953125 C-30.89453125 155.8753125 -30.89453125 154.5553125 -30.89453125 153.1953125 C-24.62453125 153.1953125 -18.35453125 153.1953125 -11.89453125 153.1953125 C-12.22453125 152.5353125 -12.55453125 151.8753125 -12.89453125 151.1953125 C-12.98469502 149.59176798 -13.012092 147.98449028 -13.00805664 146.37841797 C-13.00798111 145.37753143 -13.00790558 144.3766449 -13.00782776 143.34542847 C-13.00266647 142.26206207 -12.99750519 141.17869568 -12.9921875 140.0625 C-12.99006508 138.40204147 -12.99006508 138.40204147 -12.98789978 136.70803833 C-12.98228897 133.16210257 -12.96973462 129.61622927 -12.95703125 126.0703125 C-12.95201764 123.67057383 -12.9474545 121.27083417 -12.94335938 118.87109375 C-12.93316565 112.97912307 -12.91359228 107.08728795 -12.89453125 101.1953125 C-23.12453125 100.8653125 -33.35453125 100.5353125 -43.89453125 100.1953125 C-44.55453125 103.1653125 -45.21453125 106.1353125 -45.89453125 109.1953125 C-46.45026101 111.01736678 -47.04113221 112.82945697 -47.68212891 114.62329102 C-48.02233063 115.58360733 -48.36253235 116.54392365 -48.71304321 117.53334045 C-49.07457489 118.53683029 -49.43610657 119.54032013 -49.80859375 120.57421875 C-50.18309662 121.62689438 -50.55759949 122.67957001 -50.94345093 123.7641449 C-52.13049762 127.09716875 -53.32488842 130.42750474 -54.51953125 133.7578125 C-55.32991531 136.02912274 -56.13981611 138.30060546 -56.94921875 140.57226562 C-58.92540425 146.11528858 -60.90761202 151.65612865 -62.89453125 157.1953125 C-65.26350403 156.97659302 -65.26350403 156.97659302 -67.89453125 156.1953125 C-69.12773132 154.26193237 -69.12773132 154.26193237 -69.9909668 151.69482422 C-70.49124641 150.25730301 -70.49124641 150.25730301 -71.00163269 148.79074097 C-71.3414064 147.74604645 -71.68118011 146.70135193 -72.03125 145.625 C-72.39676468 144.55541046 -72.76227936 143.48582092 -73.13887024 142.38381958 C-74.30616924 138.95225197 -75.44410112 135.51171671 -76.58203125 132.0703125 C-77.35946238 129.77280532 -78.13873741 127.4759212 -78.91992188 125.1796875 C-81.72864948 116.88587558 -84.48846078 108.61655916 -86.89453125 100.1953125 C-97.12453125 100.1953125 -107.35453125 100.1953125 -117.89453125 100.1953125 C-117.89453125 117.6853125 -117.89453125 135.1753125 -117.89453125 153.1953125 C-111.62453125 153.1953125 -105.35453125 153.1953125 -98.89453125 153.1953125 C-98.89453125 154.5153125 -98.89453125 155.8353125 -98.89453125 157.1953125 C-112.75453125 157.1953125 -126.61453125 157.1953125 -140.89453125 157.1953125 C-140.89453125 155.8753125 -140.89453125 154.5553125 -140.89453125 153.1953125 C-134.95453125 153.1953125 -129.01453125 153.1953125 -122.89453125 153.1953125 C-122.89453125 135.7053125 -122.89453125 118.2153125 -122.89453125 100.1953125 C-137.41453125 100.1953125 -151.93453125 100.1953125 -166.89453125 100.1953125 C-166.89453125 86.9953125 -166.89453125 73.7953125 -166.89453125 60.1953125 C-156.48096219 59.54446443 -146.29472549 59.06087188 -135.89453125 59.1328125 C-131.60453125 59.1534375 -127.31453125 59.1740625 -122.89453125 59.1953125 C-123.22453125 41.7053125 -123.55453125 24.2153125 -123.89453125 6.1953125 C-129.50453125 6.1953125 -135.11453125 6.1953125 -140.89453125 6.1953125 C-140.89453125 4.5453125 -140.89453125 2.8953125 -140.89453125 1.1953125 C-126.37453125 1.1953125 -111.85453125 1.1953125 -96.89453125 1.1953125 C-94.99767578 6.47015625 -94.99767578 6.47015625 -93.0625 11.8515625 C-91.83142809 15.27380954 -90.60017113 18.69598995 -89.36889648 22.11816406 C-88.51616397 24.48853719 -87.66362254 26.85897906 -86.8112793 29.22949219 C-85.58302768 32.64536533 -84.35407921 36.06098707 -83.125 39.4765625 C-82.74675583 40.52896118 -82.36851166 41.58135986 -81.97880554 42.66564941 C-81.43858513 44.16629944 -81.43858513 44.16629944 -80.88745117 45.69726562 C-80.57434494 46.56774536 -80.26123871 47.4382251 -79.93864441 48.33508301 C-78.61400361 51.96378612 -77.25089341 55.57834675 -75.89453125 59.1953125 C-62.36453125 59.1953125 -48.83453125 59.1953125 -34.89453125 59.1953125 C-33.35732422 54.78285156 -33.35732422 54.78285156 -31.7890625 50.28125 C-30.77966958 47.38504631 -29.77009227 44.48890696 -28.76049805 41.59277344 C-28.06694653 39.60293154 -27.37358223 37.61302438 -26.68041992 35.62304688 C-26.3456665 34.66205078 -26.01091309 33.70105469 -25.66601562 32.7109375 C-25.33423309 31.75801819 -25.00245056 30.80509888 -24.66061401 29.82330322 C-23.99848067 27.92666782 -23.33372267 26.03094658 -22.66629028 24.13616943 C-21.21690119 20.0192949 -19.78676018 15.90338701 -18.46630859 11.74316406 C-18.25197678 11.08796783 -18.03764496 10.43277161 -17.81681824 9.75772095 C-17.26533845 8.06488413 -16.73273557 6.36592869 -16.2019043 4.66650391 C-14.89453125 2.1953125 -14.89453125 2.1953125 -12.86767578 0.84960938 C-8.55992889 -0.09839208 -4.39766348 -0.04983744 0 0 Z M-12.89453125 11.1953125 C-15.20423181 17.68702349 -17.49976216 24.18361617 -19.78540039 30.68383789 C-20.56500236 32.89560719 -21.3478692 35.10622846 -22.1340332 37.31567383 C-23.26198133 40.48744972 -24.3782126 43.66313766 -25.4921875 46.83984375 C-26.02490013 48.32590874 -26.02490013 48.32590874 -26.56837463 49.84199524 C-27.04898598 51.22308723 -27.04898598 51.22308723 -27.53930664 52.63208008 C-27.82576553 53.4426033 -28.11222443 54.25312653 -28.40736389 55.08821106 C-29.12723743 57.36686235 -29.12723743 57.36686235 -27.89453125 60.1953125 C-19.97453125 59.7003125 -19.97453125 59.7003125 -11.89453125 59.1953125 C-11.89453125 43.3553125 -11.89453125 27.5153125 -11.89453125 11.1953125 C-12.22453125 11.1953125 -12.55453125 11.1953125 -12.89453125 11.1953125 Z M12.10546875 12.1953125 C12.10546875 27.7053125 12.10546875 43.2153125 12.10546875 59.1953125 C17.71546875 59.1953125 23.32546875 59.1953125 29.10546875 59.1953125 C27.47116964 54.2692883 25.83589673 49.34360803 24.19824219 44.41870117 C23.64299958 42.74798711 23.08829865 41.07709293 22.53417969 39.40600586 C19.511138 30.29049839 16.47499677 21.1903454 13.10546875 12.1953125 C12.77546875 12.1953125 12.44546875 12.1953125 12.10546875 12.1953125 Z M115.10546875 12.1953125 C112.82466466 18.72735712 110.54625099 25.26023185 108.26953125 31.79370117 C107.49404607 34.0181791 106.71800516 36.24246338 105.94140625 38.46655273 C104.82797901 41.65558446 103.71652451 44.84529765 102.60546875 48.03515625 C102.08049805 49.53670509 102.08049805 49.53670509 101.54492188 51.06858826 C101.22458984 51.98946732 100.90425781 52.91034637 100.57421875 53.85913086 C100.28998047 54.67409531 100.00574219 55.48905975 99.71289062 56.32872009 C99.05389456 58.02664226 99.05389456 58.02664226 99.10546875 59.1953125 C104.71546875 59.5253125 110.32546875 59.8553125 116.10546875 60.1953125 C116.10546875 44.3553125 116.10546875 28.5153125 116.10546875 12.1953125 C115.77546875 12.1953125 115.44546875 12.1953125 115.10546875 12.1953125 Z M-117.89453125 13.1953125 C-117.89453125 28.3753125 -117.89453125 43.5553125 -117.89453125 59.1953125 C-112.61453125 59.1953125 -107.33453125 59.1953125 -101.89453125 59.1953125 C-103.16745033 53.00527353 -104.79883845 47.16550716 -106.93359375 41.22265625 C-107.21931244 40.41413712 -107.50503113 39.60561798 -107.79940796 38.77259827 C-108.70121557 36.22423354 -109.61023204 33.67851243 -110.51953125 31.1328125 C-111.13720004 29.39144668 -111.75439193 27.64991163 -112.37109375 25.90820312 C-113.87340644 21.66859873 -115.38218391 17.43134717 -116.89453125 13.1953125 C-117.22453125 13.1953125 -117.55453125 13.1953125 -117.89453125 13.1953125 Z M-133.89453125 74.1953125 C-133.89453125 78.1553125 -133.89453125 82.1153125 -133.89453125 86.1953125 C-133.23453125 86.1953125 -132.57453125 86.1953125 -131.89453125 86.1953125 C-131.56453125 83.8853125 -131.23453125 81.5753125 -130.89453125 79.1953125 C-130.44078125 80.0203125 -129.98703125 80.8453125 -129.51953125 81.6953125 C-128.98328125 82.5203125 -128.44703125 83.3453125 -127.89453125 84.1953125 C-127.23453125 84.1953125 -126.57453125 84.1953125 -125.89453125 84.1953125 C-124.24986385 81.73204538 -124.24986385 81.73204538 -122.89453125 79.1953125 C-122.56453125 81.5053125 -122.23453125 83.8153125 -121.89453125 86.1953125 C-121.56453125 86.1953125 -121.23453125 86.1953125 -120.89453125 86.1953125 C-120.89453125 82.2353125 -120.89453125 78.2753125 -120.89453125 74.1953125 C-121.55453125 74.1953125 -122.21453125 74.1953125 -122.89453125 74.1953125 C-124.21453125 76.5053125 -125.53453125 78.8153125 -126.89453125 81.1953125 C-127.40113281 80.43734375 -127.40113281 80.43734375 -127.91796875 79.6640625 C-128.36398438 79.014375 -128.81 78.3646875 -129.26953125 77.6953125 C-129.71039063 77.045625 -130.15125 76.3959375 -130.60546875 75.7265625 C-131.03085938 75.22125 -131.45625 74.7159375 -131.89453125 74.1953125 C-132.55453125 74.1953125 -133.21453125 74.1953125 -133.89453125 74.1953125 Z M-111.89453125 74.1953125 C-110.57453125 74.5253125 -109.25453125 74.8553125 -107.89453125 75.1953125 C-107.89453125 78.8253125 -107.89453125 82.4553125 -107.89453125 86.1953125 C-107.23453125 86.1953125 -106.57453125 86.1953125 -105.89453125 86.1953125 C-105.89453125 82.5653125 -105.89453125 78.9353125 -105.89453125 75.1953125 C-104.57453125 74.8653125 -103.25453125 74.5353125 -101.89453125 74.1953125 C-105.19453125 74.1953125 -108.49453125 74.1953125 -111.89453125 74.1953125 Z M-92.89453125 74.1953125 C-92.89453125 78.1553125 -92.89453125 82.1153125 -92.89453125 86.1953125 C-92.23453125 86.1953125 -91.57453125 86.1953125 -90.89453125 86.1953125 C-90.89453125 84.2153125 -90.89453125 82.2353125 -90.89453125 80.1953125 C-88.91453125 80.1953125 -86.93453125 80.1953125 -84.89453125 80.1953125 C-84.89453125 82.1753125 -84.89453125 84.1553125 -84.89453125 86.1953125 C-84.23453125 86.1953125 -83.57453125 86.1953125 -82.89453125 86.1953125 C-82.89453125 82.2353125 -82.89453125 78.2753125 -82.89453125 74.1953125 C-83.55453125 74.1953125 -84.21453125 74.1953125 -84.89453125 74.1953125 C-84.89453125 75.8453125 -84.89453125 77.4953125 -84.89453125 79.1953125 C-86.87453125 79.1953125 -88.85453125 79.1953125 -90.89453125 79.1953125 C-90.89453125 77.5453125 -90.89453125 75.8953125 -90.89453125 74.1953125 C-91.55453125 74.1953125 -92.21453125 74.1953125 -92.89453125 74.1953125 Z M-71.76953125 75.3203125 C-73.4411675 78.10637292 -73.35829749 80.01520112 -72.89453125 83.1953125 C-71.37558319 85.29295415 -71.37558319 85.29295415 -68.89453125 86.1953125 C-65.22159329 85.97493622 -63.52486579 85.82564704 -60.89453125 83.1953125 C-60.47786458 79.6953125 -60.47786458 79.6953125 -60.89453125 76.1953125 C-64.57229721 73.74346853 -67.79328804 72.93456657 -71.76953125 75.3203125 Z M-50.89453125 74.1953125 C-50.89453125 78.1553125 -50.89453125 82.1153125 -50.89453125 86.1953125 C-45.81149439 86.30852106 -45.81149439 86.30852106 -40.89453125 85.1953125 C-39.65066569 81.46371581 -40.11641407 79.01516046 -40.89453125 75.1953125 C-43.18158956 74.05178334 -44.48717887 74.09196811 -47.01953125 74.1328125 C-48.93765625 74.16375 -48.93765625 74.16375 -50.89453125 74.1953125 Z M-30.89453125 74.1953125 C-30.89453125 78.1553125 -30.89453125 82.1153125 -30.89453125 86.1953125 C-30.23453125 86.1953125 -29.57453125 86.1953125 -28.89453125 86.1953125 C-28.89453125 82.2353125 -28.89453125 78.2753125 -28.89453125 74.1953125 C-29.55453125 74.1953125 -30.21453125 74.1953125 -30.89453125 74.1953125 Z M-17.89453125 74.1953125 C-18.55453125 75.5153125 -19.21453125 76.8353125 -19.89453125 78.1953125 C-16.64055617 80.45416574 -16.64055617 80.45416574 -12.89453125 81.1953125 C-12.89453125 82.1853125 -12.89453125 83.1753125 -12.89453125 84.1953125 C-15.20453125 83.8653125 -17.51453125 83.5353125 -19.89453125 83.1953125 C-19.89453125 83.8553125 -19.89453125 84.5153125 -19.89453125 85.1953125 C-16.49132191 85.87204697 -16.49132191 85.87204697 -12.89453125 86.1953125 C-12.23453125 85.5353125 -11.57453125 84.8753125 -10.89453125 84.1953125 C-10.89453125 82.8753125 -10.89453125 81.5553125 -10.89453125 80.1953125 C-12.87453125 79.5353125 -14.85453125 78.8753125 -16.89453125 78.1953125 C-16.89453125 77.5353125 -16.89453125 76.8753125 -16.89453125 76.1953125 C-15.24453125 76.1953125 -13.59453125 76.1953125 -11.89453125 76.1953125 C-11.56453125 75.5353125 -11.23453125 74.8753125 -10.89453125 74.1953125 C-13.20453125 74.1953125 -15.51453125 74.1953125 -17.89453125 74.1953125 Z M-1.89453125 74.1953125 C-1.89453125 78.1553125 -1.89453125 82.1153125 -1.89453125 86.1953125 C-1.23453125 86.1953125 -0.57453125 86.1953125 0.10546875 86.1953125 C0.10546875 82.2353125 0.10546875 78.2753125 0.10546875 74.1953125 C-0.55453125 74.1953125 -1.21453125 74.1953125 -1.89453125 74.1953125 Z M22.10546875 74.1953125 C22.10546875 78.1553125 22.10546875 82.1153125 22.10546875 86.1953125 C22.76546875 86.1953125 23.42546875 86.1953125 24.10546875 86.1953125 C24.43546875 84.2153125 24.76546875 82.2353125 25.10546875 80.1953125 C26.42546875 81.5153125 27.74546875 82.8353125 29.10546875 84.1953125 C30.09546875 82.8753125 31.08546875 81.5553125 32.10546875 80.1953125 C32.43546875 82.1753125 32.76546875 84.1553125 33.10546875 86.1953125 C33.76546875 86.1953125 34.42546875 86.1953125 35.10546875 86.1953125 C35.10546875 82.2353125 35.10546875 78.2753125 35.10546875 74.1953125 C34.44546875 74.1953125 33.78546875 74.1953125 33.10546875 74.1953125 C30.78954853 77.41645407 30.78954853 77.41645407 30.10546875 81.1953125 C27.77022093 78.93790627 25.91841802 76.9147364 24.10546875 74.1953125 C23.44546875 74.1953125 22.78546875 74.1953125 22.10546875 74.1953125 Z M45.10546875 76.1953125 C43.92768563 78.49902671 43.92768563 78.49902671 44.10546875 81.1953125 C46.04239244 84.21564987 46.04239244 84.21564987 49.10546875 86.1953125 C52.86017026 86.1216909 54.43388036 85.86690089 57.10546875 83.1953125 C57.4356254 80.09183996 57.61078169 78.03750074 55.98046875 75.3203125 C52.00422554 72.93456657 48.78323471 73.74346853 45.10546875 76.1953125 Z M65.10546875 74.1953125 C66.42546875 74.5253125 67.74546875 74.8553125 69.10546875 75.1953125 C69.10546875 78.8253125 69.10546875 82.4553125 69.10546875 86.1953125 C69.76546875 86.1953125 70.42546875 86.1953125 71.10546875 86.1953125 C71.10546875 82.5653125 71.10546875 78.9353125 71.10546875 75.1953125 C72.42546875 74.8653125 73.74546875 74.5353125 75.10546875 74.1953125 C71.80546875 74.1953125 68.50546875 74.1953125 65.10546875 74.1953125 Z M84.10546875 74.1953125 C84.10546875 78.1553125 84.10546875 82.1153125 84.10546875 86.1953125 C84.76546875 86.1953125 85.42546875 86.1953125 86.10546875 86.1953125 C86.10546875 82.2353125 86.10546875 78.2753125 86.10546875 74.1953125 C85.44546875 74.1953125 84.78546875 74.1953125 84.10546875 74.1953125 Z M96.10546875 74.1953125 C96.10546875 78.1553125 96.10546875 82.1153125 96.10546875 86.1953125 C96.76546875 86.1953125 97.42546875 86.1953125 98.10546875 86.1953125 C98.43546875 84.2153125 98.76546875 82.2353125 99.10546875 80.1953125 C100.42546875 81.5153125 101.74546875 82.8353125 103.10546875 84.1953125 C104.09546875 82.8753125 105.08546875 81.5553125 106.10546875 80.1953125 C106.43546875 82.1753125 106.76546875 84.1553125 107.10546875 86.1953125 C107.76546875 86.1953125 108.42546875 86.1953125 109.10546875 86.1953125 C109.10546875 82.2353125 109.10546875 78.2753125 109.10546875 74.1953125 C105.36907659 75.44077655 104.91790362 76.82936203 103.10546875 80.1953125 C101.08089495 78.26276478 99.68441083 76.56372562 98.10546875 74.1953125 C97.44546875 74.1953125 96.78546875 74.1953125 96.10546875 74.1953125 Z M119.10546875 74.1953125 C119.10546875 78.1553125 119.10546875 82.1153125 119.10546875 86.1953125 C122.07546875 86.1953125 125.04546875 86.1953125 128.10546875 86.1953125 C128.10546875 85.5353125 128.10546875 84.8753125 128.10546875 84.1953125 C125.79546875 84.1953125 123.48546875 84.1953125 121.10546875 84.1953125 C121.10546875 82.8753125 121.10546875 81.5553125 121.10546875 80.1953125 C123.08546875 80.1953125 125.06546875 80.1953125 127.10546875 80.1953125 C127.10546875 79.8653125 127.10546875 79.5353125 127.10546875 79.1953125 C125.12546875 79.1953125 123.14546875 79.1953125 121.10546875 79.1953125 C121.10546875 77.8753125 121.10546875 76.5553125 121.10546875 75.1953125 C123.41546875 75.1953125 125.72546875 75.1953125 128.10546875 75.1953125 C128.10546875 74.8653125 128.10546875 74.5353125 128.10546875 74.1953125 C125.13546875 74.1953125 122.16546875 74.1953125 119.10546875 74.1953125 Z M137.10546875 74.1953125 C137.10546875 78.1553125 137.10546875 82.1153125 137.10546875 86.1953125 C140.07546875 86.1953125 143.04546875 86.1953125 146.10546875 86.1953125 C146.10546875 85.5353125 146.10546875 84.8753125 146.10546875 84.1953125 C143.79546875 84.1953125 141.48546875 84.1953125 139.10546875 84.1953125 C139.10546875 80.8953125 139.10546875 77.5953125 139.10546875 74.1953125 C138.44546875 74.1953125 137.78546875 74.1953125 137.10546875 74.1953125 Z M154.10546875 74.1953125 C154.10546875 78.1553125 154.10546875 82.1153125 154.10546875 86.1953125 C157.07546875 86.1953125 160.04546875 86.1953125 163.10546875 86.1953125 C163.10546875 85.5353125 163.10546875 84.8753125 163.10546875 84.1953125 C160.79546875 84.1953125 158.48546875 84.1953125 156.10546875 84.1953125 C156.10546875 82.8753125 156.10546875 81.5553125 156.10546875 80.1953125 C158.08546875 80.1953125 160.06546875 80.1953125 162.10546875 80.1953125 C162.10546875 79.8653125 162.10546875 79.5353125 162.10546875 79.1953125 C160.12546875 79.1953125 158.14546875 79.1953125 156.10546875 79.1953125 C156.10546875 77.8753125 156.10546875 76.5553125 156.10546875 75.1953125 C158.41546875 75.1953125 160.72546875 75.1953125 163.10546875 75.1953125 C163.10546875 74.8653125 163.10546875 74.5353125 163.10546875 74.1953125 C160.13546875 74.1953125 157.16546875 74.1953125 154.10546875 74.1953125 Z M-61.89453125 100.1953125 C-59.91453125 106.1353125 -57.93453125 112.0753125 -55.89453125 118.1953125 C-53.50049641 117.27790134 -53.50049641 117.27790134 -52.60546875 113.88671875 C-52.15242857 112.51294102 -51.70744776 111.13648569 -51.26953125 109.7578125 C-51.04007813 109.06365234 -50.810625 108.36949219 -50.57421875 107.65429688 C-49.32562422 104.00048426 -49.32562422 104.00048426 -48.89453125 100.1953125 C-53.18453125 100.1953125 -57.47453125 100.1953125 -61.89453125 100.1953125 Z M68.10546875 100.1953125 C69.75546875 105.1453125 71.40546875 110.0953125 73.10546875 115.1953125 C73.76546875 115.1953125 74.42546875 115.1953125 75.10546875 115.1953125 C76.75546875 110.2453125 78.40546875 105.2953125 80.10546875 100.1953125 C76.14546875 100.1953125 72.18546875 100.1953125 68.10546875 100.1953125 Z " fill="#FAFAFA" transform="translate(242.89453125,169.8046875)"/>
<path d="M0 0 C4.875 0.875 4.875 0.875 6 2 C6.1875 4.4375 6.1875 4.4375 6 7 C4 9 4 9 1.375 9.125 C0.59125 9.08375 -0.1925 9.0425 -1 9 C-2.1875 6.75 -2.1875 6.75 -3 4 C-1.625 1.6875 -1.625 1.6875 0 0 Z " fill="#F3F4F3" transform="translate(292,245)"/>
<path d="M0 0 C1.875 0.6875 1.875 0.6875 2.875 1.6875 C2.91580783 3.68708364 2.91754356 5.68795254 2.875 7.6875 C0 8.3125 0 8.3125 -3.125 8.6875 C-5.125 6.6875 -5.125 6.6875 -5.4375 4.1875 C-5.334375 3.3625 -5.23125 2.5375 -5.125 1.6875 C-2.125 -0.3125 -2.125 -0.3125 0 0 Z " fill="#F8F8F8" transform="translate(177.125,245.3125)"/>
<path d="M0 0 C1.32 0 2.64 0 4 0 C4 1.65 4 3.3 4 5 C2.02 5.99 2.02 5.99 0 7 C-0.66 5.68 -1.32 4.36 -2 3 C-1.34 2.01 -0.68 1.02 0 0 Z " fill="#F9FBFA" transform="translate(293,246)"/>
<path d="M0 0 C1.32 0 2.64 0 4 0 C2.8141763 3.37503669 1.72426311 5.64722731 -1 8 C-1.625 5.625 -1.625 5.625 -2 3 C-1.34 2.34 -0.68 1.68 0 1 C0 0.67 0 0.34 0 0 Z " fill="#F3F4F4" transform="translate(116,244)"/>
<path d="M0 0 C2.375 -0.1875 2.375 -0.1875 5 0 C5.66 0.99 6.32 1.98 7 3 C6 4 6 4 2.9375 4.0625 C1.4834375 4.0315625 1.4834375 4.0315625 0 4 C0 2.68 0 1.36 0 0 Z " fill="#F5F5F5" transform="translate(194,250)"/>
<path d="M0 0 C0.33 0.66 0.66 1.32 1 2 C1.66 2.33 2.32 2.66 3 3 C1.906875 3.0825 0.81375 3.165 -0.3125 3.25 C-4.03276664 3.63689209 -4.03276664 3.63689209 -5.9375 6.0625 C-6.288125 6.701875 -6.63875 7.34125 -7 8 C-7.33 6.68 -7.66 5.36 -8 4 C-3.375 0 -3.375 0 0 0 Z " fill="#F2F4F3" transform="translate(229,241)"/>
<path d="M0 0 C1.65 0 3.3 0 5 0 C5 1.32 5 2.64 5 4 C3.35 4 1.7 4 0 4 C0 2.68 0 1.36 0 0 Z " fill="#F6F6F6" transform="translate(194,245)"/>
<path d="M0 0 C1.98 0 3.96 0 6 0 C6 1.98 6 3.96 6 6 C4.68 4.68 3.36 3.36 2 2 C1.34 2.66 0.68 3.32 0 4 C0 2.68 0 1.36 0 0 Z " fill="#F1F1F1" transform="translate(152,250)"/>
</svg>
